<?xml version="1.0" encoding="UTF-8" standalone="no"?>
<!-- Created with Inkscape (http://www.inkscape.org/) -->

<svg
   xmlns:dc="http://purl.org/dc/elements/1.1/"
   xmlns:cc="http://creativecommons.org/ns#"
   xmlns:rdf="http://www.w3.org/1999/02/22-rdf-syntax-ns#"
   xmlns:svg="http://www.w3.org/2000/svg"
   xmlns="http://www.w3.org/2000/svg"
   xmlns:sodipodi="http://sodipodi.sourceforge.net/DTD/sodipodi-0.dtd"
   xmlns:inkscape="http://www.inkscape.org/namespaces/inkscape"
   width="30.225517cm"
   height="7.2517633cm"
   viewBox="0 0 302.25516 72.517631"
   version="1.1"
   id="svg2134"
   inkscape:version="0.92.4 5da689c313, 2019-01-14"
   sodipodi:docname="logo.svg">
  <defs
     id="defs2128" />
  <sodipodi:namedview
     id="base"
     pagecolor="#ffffff"
     bordercolor="#666666"
     borderopacity="1.0"
     inkscape:pageopacity="0.0"
     inkscape:pageshadow="2"
     inkscape:zoom="0.7"
     inkscape:cx="489.24017"
     inkscape:cy="-46.228064"
     inkscape:document-units="mm"
     inkscape:current-layer="layer1"
     showgrid="false"
     fit-margin-top="1"
     fit-margin-left="1"
     fit-margin-bottom="1"
     fit-margin-right="1"
     units="cm"
     inkscape:window-width="960"
     inkscape:window-height="1080"
     inkscape:window-x="0"
     inkscape:window-y="0"
     inkscape:window-maximized="0"
     showguides="true"
     inkscape:guide-bbox="true">
    <sodipodi:guide
       position="115.46044,55.859327"
       orientation="0,1"
       id="guide905"
       inkscape:locked="false" />
    <sodipodi:guide
       position="132.29842,18.708864"
       orientation="0,1"
       id="guide907"
       inkscape:locked="false" />
  </sodipodi:namedview>
  <metadata
     id="metadata2131">
    <rdf:RDF>
      <cc:Work
         rdf:about="">
        <dc:format>image/svg+xml</dc:format>
        <dc:type
           rdf:resource="http://purl.org/dc/dcmitype/StillImage" />
        <dc:title></dc:title>
      </cc:Work>
    </rdf:RDF>
  </metadata>
  <g
     inkscape:label="Layer 1"
     inkscape:groupmode="layer"
     id="layer1"
     transform="translate(346.74332,3.8421493)">
    <rect
       style="opacity:1;fill:#ff9955;fill-opacity:1;fill-rule:nonzero;stroke:none;stroke-width:1.03186822;stroke-linecap:round;stroke-linejoin:round;stroke-miterlimit:4;stroke-dasharray:none;stroke-opacity:1;paint-order:stroke fill markers"
       id="rect1380"
       width="52.484962"
       height="52.484962"
       x="-336.74332"
       y="6.1578507"
       rx="11.629867" />
    <path
       inkscape:connector-curvature="0"
       id="path1360"
       style="font-style:normal;font-variant:normal;font-weight:bold;font-stretch:normal;font-size:48.64808655px;line-height:1.25;font-family:Comfortaa;-inkscape-font-specification:'Comfortaa Bold';letter-spacing:0px;word-spacing:0px;fill:#ffffff;fill-opacity:1;stroke:none;stroke-width:1.21620214;stroke-opacity:1"
       d="m -325.13922,49.851926 q -1.07026,0 -1.79998,-0.681069 -0.68107,-0.729721 -0.68107,-1.799979 V 25.722476 q 0,-1.11891 0.68107,-1.79998 0.72972,-0.68107 1.79998,-0.68107 1.11891,0 1.79998,0.68107 0.68107,0.68107 0.68107,1.79998 v 21.648402 q 0,1.070258 -0.68107,1.799979 -0.68107,0.681069 -1.79998,0.681069 z m 0,-30.94018 q -1.3135,0 -2.28646,-0.92432 -0.92431,-0.97296 -0.92431,-2.28646 0,-1.31349 0.92431,-2.23781 0.97296,-0.97296 2.28646,-0.97296 1.3135,0 2.23781,0.97296 0.97296,0.92432 0.97296,2.23781 0,1.3135 -0.97296,2.28646 -0.92431,0.92432 -2.23781,0.92432 z" />
    <path
       inkscape:connector-curvature="0"
       id="path1362"
       style="font-style:normal;font-variant:normal;font-weight:bold;font-stretch:normal;font-size:48.64808655px;line-height:1.25;font-family:Comfortaa;-inkscape-font-specification:'Comfortaa Bold';letter-spacing:0px;word-spacing:0px;fill:#ffffff;fill-opacity:1;stroke:none;stroke-width:1.21620214"
       d="m -292.55509,46.106026 q 0.68108,0.729721 0.68108,1.702681 0,0.875671 -0.63243,1.45944 -0.58377,0.583779 -1.55674,0.583779 -1.16755,0 -1.75133,-0.77837 l -7.73504,-9.243129 -7.34586,9.243129 q -0.72973,0.77837 -1.75134,0.77837 -0.97296,0 -1.55673,-0.583779 -0.53513,-0.583769 -0.53513,-1.45944 0,-0.97296 0.68107,-1.799981 l 7.54045,-9.43773 -8.02693,-9.48637 q -0.72972,-0.87567 -0.72972,-1.84863 0,-0.82702 0.53513,-1.4108 0.58377,-0.58377 1.60538,-0.58377 1.16756,0 1.84863,0.82702 l 7.97829,9.53502 7.15127,-9.53502 q 0.63242,-0.82702 1.79997,-0.82702 0.97297,0 1.5081,0.63242 0.58377,0.58378 0.58377,1.45945 0,1.07025 -0.68107,1.945921 l -7.34586,9.58367 z" />
    <path
       inkscape:connector-curvature="0"
       id="path1364"
       style="font-style:normal;font-variant:normal;font-weight:bold;font-stretch:normal;font-size:48.64808655px;line-height:1.25;font-family:Comfortaa;-inkscape-font-specification:'Comfortaa Bold';letter-spacing:0px;word-spacing:0px;fill:#79989d;fill-opacity:1;stroke:none;stroke-width:1.21620214"
       d="m -272.67352,50.381098 q -2.09187,0 -3.79455,-1.118913 -1.65404,-1.167548 -2.57835,-3.210769 -0.92431,-2.091869 -0.92431,-4.670218 V 14.819346 q 0,-1.07026 0.68107,-1.75133 0.68107,-0.68107 1.75133,-0.68107 1.07026,0 1.75133,0.68107 0.68108,0.68107 0.68108,1.75133 v 26.561852 q 0,1.799979 0.68107,2.967537 0.68107,1.167551 1.75133,1.167551 h 1.2162 q 0.97297,0 1.55674,0.68108 0.63243,0.681072 0.63243,1.75133 0,1.07025 -0.92432,1.75133 -0.92431,0.681072 -2.38375,0.681072 z" />
    <path
       inkscape:connector-curvature="0"
       id="path1366"
       style="font-style:normal;font-variant:normal;font-weight:bold;font-stretch:normal;font-size:48.64808655px;line-height:1.25;font-family:Comfortaa;-inkscape-font-specification:'Comfortaa Bold';letter-spacing:0px;word-spacing:0px;fill:#79989d;fill-opacity:1;stroke:none;stroke-width:1.21620214"
       d="m -253.72585,23.576006 q 3.74589,0 6.76208,1.799971 3.06483,1.751339 4.81616,4.864809 1.79999,3.064831 1.79999,6.859379 v 10.848531 q 0,1.07025 -0.72974,1.799981 -0.68107,0.68107 -1.75133,0.68107 -1.07025,0 -1.79997,-0.68107 -0.68107,-0.729731 -0.68107,-1.799981 v -1.799979 q -1.70269,2.09187 -4.1351,3.259421 -2.43239,1.167548 -5.25398,1.167548 -3.50266,0 -6.3729,-1.75133 -2.82159,-1.75133 -4.47562,-4.816161 -1.60539,-3.113479 -1.60539,-6.90803 0,-3.794548 1.75133,-6.859379 1.75133,-3.11347 4.81616,-4.864809 3.11348,-1.799971 6.85938,-1.799971 z m 0,22.62136 q 2.4324,0 4.37833,-1.167559 1.99456,-1.216199 3.11347,-3.25942 1.1189,-2.09187 1.1189,-4.670222 0,-2.578348 -1.1189,-4.670208 -1.11891,-2.091871 -3.11347,-3.259421 -1.94593,-1.216209 -4.37833,-1.216209 -2.4324,0 -4.42697,1.216209 -1.94593,1.16755 -3.11348,3.259421 -1.11891,2.09186 -1.11891,4.670208 0,2.578352 1.11891,4.670222 1.16755,2.043221 3.11348,3.25942 1.99457,1.167559 4.42697,1.167559 z" />
    <path
       inkscape:connector-curvature="0"
       id="path1368"
       style="font-style:normal;font-variant:normal;font-weight:bold;font-stretch:normal;font-size:48.64808655px;line-height:1.25;font-family:Comfortaa;-inkscape-font-specification:'Comfortaa Bold';letter-spacing:0px;word-spacing:0px;fill:#79989d;fill-opacity:1;stroke:none;stroke-width:1.21620214"
       d="m -220.43482,23.576006 q 3.50266,0 6.32425,1.75133 2.87024,1.75133 4.47562,4.86481 1.65404,3.064819 1.65404,6.859381 0,3.794548 -1.75133,6.90802 -1.75133,3.06483 -4.86481,4.864809 -3.06483,1.75133 -6.81073,1.75133 -3.74591,0 -6.81073,-1.75133 -3.01619,-1.799979 -4.81617,-4.864809 -1.75133,-3.113472 -1.75133,-6.90802 V 14.867996 q 0,-1.11891 0.68108,-1.79998 0.72972,-0.68107 1.79998,-0.68107 1.1189,0 1.79998,0.68107 0.68107,0.68107 0.68107,1.79998 v 13.134981 q 1.70268,-2.091871 4.13509,-3.259421 2.4324,-1.16755 5.25399,-1.16755 z m -0.97296,22.62136 q 2.4324,0 4.37832,-1.167559 1.99458,-1.216199 3.11348,-3.308069 1.16756,-2.09187 1.16756,-4.670211 0,-2.578351 -1.16756,-4.62157 -1.1189,-2.091871 -3.11348,-3.259421 -1.94592,-1.216209 -4.37832,-1.216209 -2.43241,0 -4.42698,1.216209 -1.94592,1.16755 -3.06483,3.259421 -1.1189,2.043219 -1.1189,4.62157 0,2.578341 1.1189,4.670211 1.11891,2.09187 3.06483,3.308069 1.99457,1.167559 4.42698,1.167559 z" />
    <path
       inkscape:connector-curvature="0"
       id="path1392"
       style="font-style:normal;font-variant:normal;font-weight:bold;font-stretch:normal;font-size:18.49994659px;line-height:1;font-family:Comfortaa;-inkscape-font-specification:'Comfortaa Bold';letter-spacing:0px;word-spacing:0px;fill:#39595d;fill-opacity:1;stroke:none;stroke-width:0.53089571"
       d="m -184.72509,28.166173 q -0.46718,0 -0.78572,-0.297304 -0.2973,-0.318538 -0.2973,-0.785728 v -9.449937 q 0,-0.488425 0.2973,-0.785728 0.31854,-0.297302 0.78572,-0.297302 0.48842,0 0.78573,0.297302 0.2973,0.297303 0.2973,0.785728 v 9.449937 q 0,0.46719 -0.2973,0.785728 -0.29731,0.297304 -0.78573,0.297304 z m 0,-13.505994 q -0.57336,0 -0.99808,-0.403482 -0.40348,-0.424706 -0.40348,-0.998075 0,-0.573369 0.40348,-0.976851 0.42472,-0.424718 0.99808,-0.424718 0.57337,0 0.97685,0.424718 0.42472,0.403482 0.42472,0.976851 0,0.573369 -0.42472,0.998075 -0.40348,0.403482 -0.97685,0.403482 z" />
    <path
       inkscape:connector-curvature="0"
       id="path1394"
       style="font-style:normal;font-variant:normal;font-weight:bold;font-stretch:normal;font-size:18.49994659px;line-height:1;font-family:Comfortaa;-inkscape-font-specification:'Comfortaa Bold';letter-spacing:0px;word-spacing:0px;fill:#39595d;fill-opacity:1;stroke:none;stroke-width:0.53089571"
       d="m -173.46555,16.443994 q 1.46528,0 2.63325,0.637077 1.16797,0.637077 1.82628,1.868747 0.65831,1.210446 0.65831,2.930553 v 5.224007 q 0,0.467189 -0.31854,0.785727 -0.2973,0.297302 -0.76449,0.297302 -0.46719,0 -0.78572,-0.297302 -0.2973,-0.318538 -0.2973,-0.785727 v -5.224007 q 0,-1.720107 -0.93438,-2.590779 -0.91314,-0.891907 -2.44213,-0.891907 -0.89189,0 -1.63515,0.36101 -0.72202,0.36101 -1.14674,0.976851 -0.40348,0.615841 -0.40348,1.380333 v 5.988499 q 0,0.467189 -0.2973,0.785727 -0.2973,0.297302 -0.78572,0.297302 -0.46719,0 -0.78572,-0.297302 -0.29731,-0.318538 -0.29731,-0.785727 v -9.471174 q 0,-0.488425 0.29731,-0.785728 0.31853,-0.297302 0.78572,-0.297302 0.48842,0 0.78572,0.297302 0.2973,0.297303 0.2973,0.785728 v 0.233595 q 0.67955,-0.679549 1.61393,-1.040559 0.93438,-0.382246 1.99616,-0.382246 z" />
    <path
       inkscape:connector-curvature="0"
       id="path1396"
       style="font-style:normal;font-variant:normal;font-weight:bold;font-stretch:normal;font-size:18.49994659px;line-height:1;font-family:Comfortaa;-inkscape-font-specification:'Comfortaa Bold';letter-spacing:0px;word-spacing:0px;fill:#39595d;fill-opacity:1;stroke:none;stroke-width:0.53089571"
       d="m -159.21729,26.042584 q 0.38225,0 0.63708,0.297301 0.27607,0.297302 0.27607,0.764493 0,0.467189 -0.36101,0.764491 -0.33978,0.297304 -0.89191,0.297304 h -0.38225 q -1.04056,0 -1.91122,-0.530899 -0.84943,-0.552133 -1.33786,-1.486512 -0.48842,-0.934368 -0.48842,-2.102342 v -5.245253 h -0.97685 q -0.44596,0 -0.72201,-0.254831 -0.27607,-0.254831 -0.27607,-0.637065 0,-0.424718 0.27607,-0.679549 0.27605,-0.254831 0.72201,-0.254831 h 0.97685 v -3.057956 q 0,-0.46719 0.2973,-0.764493 0.2973,-0.297302 0.76449,-0.297302 0.46719,0 0.76449,0.297302 0.29731,0.297303 0.29731,0.764493 v 3.057956 h 1.80504 q 0.44595,0 0.72202,0.254831 0.27606,0.254831 0.27606,0.679549 0,0.382234 -0.27606,0.637065 -0.27607,0.254831 -0.72202,0.254831 h -1.80504 v 5.245253 q 0,0.849436 0.46718,1.422805 0.46718,0.573359 1.14673,0.573359 z" />
    <path
       inkscape:connector-curvature="0"
       id="path1398"
       style="font-style:normal;font-variant:normal;font-weight:bold;font-stretch:normal;font-size:18.49994659px;line-height:1;font-family:Comfortaa;-inkscape-font-specification:'Comfortaa Bold';letter-spacing:0px;word-spacing:0px;fill:#39595d;fill-opacity:1;stroke:none;stroke-width:0.53089571"
       d="m -144.63453,22.177662 q 0,0.403482 -0.27607,0.679548 -0.27606,0.254832 -0.70078,0.254832 h -8.06962 q 0.2336,1.486511 1.33786,2.399655 1.12551,0.913131 2.73942,0.913131 0.63708,0 1.31663,-0.233593 0.70078,-0.233585 1.14674,-0.573359 0.2973,-0.233595 0.70078,-0.233595 0.40348,0 0.63706,0.212359 0.38225,0.318539 0.38225,0.722009 0,0.382246 -0.33977,0.637077 -0.72201,0.573369 -1.80504,0.934379 -1.0618,0.361011 -2.03865,0.361011 -1.74133,0 -3.12166,-0.743256 -1.38032,-0.764493 -2.16605,-2.102342 -0.76449,-1.337862 -0.76449,-3.036733 0,-1.69886 0.72202,-3.036721 0.74325,-1.359086 2.03863,-2.102342 1.31663,-0.764492 2.97301,-0.764492 1.63517,0 2.82438,0.72202 1.1892,0.722021 1.82627,2.017398 0.63708,1.29539 0.63708,2.973014 z m -5.28773,-3.886157 q -1.55021,0 -2.52706,0.849436 -0.95561,0.849435 -1.21044,2.27224 h 7.07154 q -0.19112,-1.422805 -1.0618,-2.27224 -0.87067,-0.849436 -2.27224,-0.849436 z" />
    <path
       inkscape:connector-curvature="0"
       id="path1400"
       style="font-style:normal;font-variant:normal;font-weight:bold;font-stretch:normal;font-size:18.49994659px;line-height:1;font-family:Comfortaa;-inkscape-font-specification:'Comfortaa Bold';letter-spacing:0px;word-spacing:0px;fill:#39595d;fill-opacity:1;stroke:none;stroke-width:0.53089571"
       d="m -135.12535,16.422758 q 1.12549,0 1.76257,0.339774 0.63707,0.339775 0.63707,0.849436 0,0.148651 -0.0212,0.212359 -0.19113,0.679537 -0.84944,0.679537 -0.10618,0 -0.31854,-0.04247 -0.84943,-0.148651 -1.38032,-0.148651 -1.52898,0 -2.46336,0.700784 -0.93438,0.700785 -0.93438,1.889995 v 6.200858 q 0,0.50966 -0.27606,0.785727 -0.25483,0.276068 -0.78572,0.276068 -0.50967,0 -0.78573,-0.254831 -0.27607,-0.276068 -0.27607,-0.806964 v -9.49241 q 0,-0.509661 0.27607,-0.785728 0.27606,-0.276066 0.78573,-0.276066 1.06178,0 1.06178,1.061794 v 0.403482 q 0.63708,-0.743256 1.57145,-1.167974 0.93438,-0.424718 1.99618,-0.424718 z" />
    <path
       inkscape:connector-curvature="0"
       id="path1402"
       style="font-style:normal;font-variant:normal;font-weight:bold;font-stretch:normal;font-size:18.49994659px;line-height:1;font-family:Comfortaa;-inkscape-font-specification:'Comfortaa Bold';letter-spacing:0px;word-spacing:0px;fill:#39595d;fill-opacity:1;stroke:none;stroke-width:0.53089571"
       d="m -125.59184,16.46523 q 1.63516,0 2.95178,0.785728 1.33786,0.764492 2.10234,2.123578 0.78573,1.337861 0.78573,2.994249 v 4.735593 q 0,0.467189 -0.31854,0.785727 -0.2973,0.297302 -0.76448,0.297302 -0.46719,0 -0.78573,-0.297302 -0.2973,-0.318538 -0.2973,-0.785727 v -0.785729 q -0.74326,0.913143 -1.80505,1.422806 -1.06178,0.509661 -2.29346,0.509661 -1.52899,0 -2.78189,-0.764493 -1.23169,-0.764492 -1.95371,-2.102342 -0.70078,-1.359097 -0.70078,-3.015496 0,-1.656388 0.76449,-2.994249 0.76449,-1.359086 2.10235,-2.123578 1.35909,-0.785728 2.99425,-0.785728 z m 0,9.874655 q 1.0618,0 1.91122,-0.50965 0.87067,-0.530897 1.3591,-1.422805 0.48842,-0.913143 0.48842,-2.038645 0,-1.125491 -0.48842,-2.038634 -0.48843,-0.913144 -1.3591,-1.422805 -0.84942,-0.530897 -1.91122,-0.530897 -1.06179,0 -1.93246,0.530897 -0.84944,0.509661 -1.35909,1.422805 -0.48842,0.913143 -0.48842,2.038634 0,1.125502 0.48842,2.038645 0.50965,0.891908 1.35909,1.422805 0.87067,0.50965 1.93246,0.50965 z" />
    <path
       inkscape:connector-curvature="0"
       id="path1404"
       style="font-style:normal;font-variant:normal;font-weight:bold;font-stretch:normal;font-size:18.49994659px;line-height:1;font-family:Comfortaa;-inkscape-font-specification:'Comfortaa Bold';letter-spacing:0px;word-spacing:0px;fill:#39595d;fill-opacity:1;stroke:none;stroke-width:0.53089571"
       d="m -110.78089,28.251116 q -1.67763,0 -3.01549,-0.764493 -1.33786,-0.764492 -2.10234,-2.102342 -0.74326,-1.359097 -0.74326,-3.015496 0,-1.69886 0.72202,-3.036721 0.74325,-1.359086 2.05987,-2.102342 1.31663,-0.764492 2.97302,-0.764492 2.50583,0 4.16222,1.911219 0.21236,0.233595 0.21236,0.552133 0,0.467189 -0.46719,0.785728 -0.21236,0.148651 -0.48843,0.148651 -0.48841,0 -0.82818,-0.382246 -0.5309,-0.573369 -1.16798,-0.8282 -0.61584,-0.276066 -1.4228,-0.276066 -1.63515,0 -2.65448,1.104266 -1.01932,1.083031 -1.01932,2.88807 0,1.146738 0.46719,2.059881 0.48842,0.891909 1.33786,1.401569 0.87067,0.50965 1.97493,0.50965 1.44404,0 2.33594,-0.743245 0.40349,-0.297302 0.78572,-0.297302 0.2973,0 0.55213,0.191123 0.40349,0.339774 0.40349,0.76448 0,0.318539 -0.25483,0.573369 -1.52898,1.422806 -3.82245,1.422806 z" />
    <path
       inkscape:connector-curvature="0"
       id="path1406"
       style="font-style:normal;font-variant:normal;font-weight:bold;font-stretch:normal;font-size:18.49994659px;line-height:1;font-family:Comfortaa;-inkscape-font-specification:'Comfortaa Bold';letter-spacing:0px;word-spacing:0px;fill:#39595d;fill-opacity:1;stroke:none;stroke-width:0.53089571"
       d="m -98.171354,26.042584 q 0.382246,0 0.637077,0.297301 0.276066,0.297302 0.276066,0.764493 0,0.467189 -0.36101,0.764491 -0.339774,0.297304 -0.891907,0.297304 h -0.382246 q -1.040559,0 -1.911216,-0.530899 -0.84944,-0.552133 -1.33786,-1.486512 -0.48843,-0.934368 -0.48843,-2.102342 v -5.245253 h -0.97685 q -0.44595,0 -0.72202,-0.254831 -0.27606,-0.254831 -0.27606,-0.637065 0,-0.424718 0.27606,-0.679549 0.27607,-0.254831 0.72202,-0.254831 h 0.97685 v -3.057956 q 0,-0.46719 0.2973,-0.764493 0.29731,-0.297302 0.76449,-0.297302 0.46719,0 0.7645,0.297302 0.2973,0.297303 0.2973,0.764493 v 3.057956 h 1.805039 q 0.445953,0 0.72202,0.254831 0.276067,0.254831 0.276067,0.679549 0,0.382234 -0.276067,0.637065 -0.276067,0.254831 -0.72202,0.254831 h -1.805039 v 5.245253 q 0,0.849436 0.46718,1.422805 0.467187,0.573359 1.146736,0.573359 z" />
    <path
       inkscape:connector-curvature="0"
       id="path1409"
       style="font-style:normal;font-variant:normal;font-weight:bold;font-stretch:normal;font-size:18.49994659px;line-height:1;font-family:Comfortaa;-inkscape-font-specification:'Comfortaa Bold';letter-spacing:0px;word-spacing:0px;fill:#39595d;fill-opacity:1;stroke:none;stroke-width:0.53089571"
       d="m -92.861119,28.166173 q -0.467189,0 -0.785728,-0.297304 -0.297302,-0.318538 -0.297302,-0.785728 v -9.449937 q 0,-0.488425 0.297302,-0.785728 0.318539,-0.297302 0.785728,-0.297302 0.488426,0 0.785728,0.297302 0.297303,0.297303 0.297303,0.785728 v 9.449937 q 0,0.46719 -0.297303,0.785728 -0.297302,0.297304 -0.785728,0.297304 z m 0,-13.505994 q -0.573369,0 -0.998086,-0.403482 -0.403471,-0.424706 -0.403471,-0.998075 0,-0.573369 0.403471,-0.976851 0.424717,-0.424718 0.998086,-0.424718 0.573369,0 0.976851,0.424718 0.424718,0.403482 0.424718,0.976851 0,0.573369 -0.424718,0.998075 -0.403482,0.403482 -0.976851,0.403482 z" />
    <path
       inkscape:connector-curvature="0"
       id="path1411"
       style="font-style:normal;font-variant:normal;font-weight:bold;font-stretch:normal;font-size:18.49994659px;line-height:1;font-family:Comfortaa;-inkscape-font-specification:'Comfortaa Bold';letter-spacing:0px;word-spacing:0px;fill:#39595d;fill-opacity:1;stroke:none;stroke-width:0.53089571"
       d="m -78.787403,16.698825 q 0.276067,0.127415 0.424718,0.36101 0.148652,0.212359 0.148652,0.488425 0,0.191123 -0.10618,0.403482 l -4.501997,9.492409 q -0.318539,0.700786 -0.97684,0.700786 -0.36101,0 -0.594605,-0.148651 -0.233595,-0.169888 -0.424718,-0.552135 l -4.501999,-9.492409 q -0.08494,-0.169887 -0.08494,-0.382246 0,-0.573369 0.594605,-0.870671 0.191123,-0.10618 0.445954,-0.10618 0.25483,0 0.488425,0.148652 0.233595,0.127415 0.36101,0.382246 l 3.695036,7.963436 3.652562,-7.963436 q 0.127415,-0.254831 0.36101,-0.382246 0.254831,-0.148652 0.530886,-0.148652 0.276067,0 0.488425,0.10618 z" />
    <path
       inkscape:connector-curvature="0"
       id="path1413"
       style="font-style:normal;font-variant:normal;font-weight:bold;font-stretch:normal;font-size:18.49994659px;line-height:1;font-family:Comfortaa;-inkscape-font-specification:'Comfortaa Bold';letter-spacing:0px;word-spacing:0px;fill:#39595d;fill-opacity:1;stroke:none;stroke-width:0.53089571"
       d="m -66.060836,22.177662 q 0,0.403482 -0.276067,0.679548 -0.276066,0.254832 -0.700784,0.254832 h -8.069616 q 0.233595,1.486511 1.337861,2.399655 1.125502,0.913131 2.739419,0.913131 0.637076,0 1.316625,-0.233593 0.700784,-0.233585 1.146738,-0.573359 0.297303,-0.233595 0.700784,-0.233595 0.403471,0 0.637066,0.212359 0.382246,0.318539 0.382246,0.722009 0,0.382246 -0.339775,0.637077 -0.722008,0.573369 -1.805039,0.934379 -1.061794,0.361011 -2.038645,0.361011 -1.741332,0 -3.121665,-0.743256 -1.380321,-0.764493 -2.166049,-2.102342 -0.764492,-1.337862 -0.764492,-3.036733 0,-1.69886 0.72202,-3.036721 0.743256,-1.359086 2.038634,-2.102342 1.316625,-0.764492 2.973013,-0.764492 1.635164,0 2.824374,0.72202 1.189198,0.722021 1.826275,2.017398 0.637077,1.29539 0.637077,2.973014 z m -5.287726,-3.886157 q -1.550208,0 -2.527059,0.849436 -0.955615,0.849435 -1.210446,2.27224 h 7.07154 q -0.191123,-1.422805 -1.061794,-2.27224 -0.870672,-0.849436 -2.272241,-0.849436 z" />
    <path
       inkscape:connector-curvature="0"
       id="path1415"
       style="font-style:normal;font-variant:normal;font-weight:bold;font-stretch:normal;font-size:18.49994659px;line-height:1;font-family:Comfortaa;-inkscape-font-specification:'Comfortaa Bold';letter-spacing:0px;word-spacing:0px;fill:#39595d;fill-opacity:1;stroke:none;stroke-width:0.53089571"
       d="m -175.28689,44.215305 q 0,0.403485 -0.27606,0.679549 -0.27607,0.254832 -0.70079,0.254832 h -8.06961 q 0.23359,1.486513 1.33786,2.399643 1.1255,0.913146 2.73942,0.913146 0.63707,0 1.31662,-0.233598 0.70079,-0.233593 1.14674,-0.573367 0.2973,-0.233598 0.70078,-0.233598 0.40349,0 0.63707,0.212362 0.38225,0.318539 0.38225,0.72202 0,0.382245 -0.33978,0.637077 -0.72201,0.573368 -1.80504,0.934378 -1.06179,0.361009 -2.03864,0.361009 -1.74134,0 -3.12167,-0.743254 -1.38032,-0.764495 -2.16605,-2.102352 -0.76449,-1.337852 -0.76449,-3.036724 0,-1.698858 0.72202,-3.03672 0.74326,-1.359096 2.03863,-2.102351 1.31663,-0.764482 2.97303,-0.764482 1.63515,0 2.82436,0.722008 1.18921,0.722022 1.82628,2.017409 0.63707,1.295391 0.63707,2.973013 z m -5.28771,-3.886155 q -1.55022,0 -2.52707,0.849436 -0.95562,0.849435 -1.21045,2.27223 h 7.07154 q -0.19112,-1.422795 -1.06179,-2.27223 -0.87067,-0.849436 -2.27223,-0.849436 z" />
    <path
       inkscape:connector-curvature="0"
       id="path1417"
       style="font-style:normal;font-variant:normal;font-weight:bold;font-stretch:normal;font-size:18.49994659px;line-height:1;font-family:Comfortaa;-inkscape-font-specification:'Comfortaa Bold';letter-spacing:0px;word-spacing:0px;fill:#39595d;fill-opacity:1;stroke:none;stroke-width:0.53089571"
       d="m -164.33351,48.568652 q 0.29731,0.318538 0.29731,0.743258 0,0.382245 -0.27607,0.637075 -0.25483,0.254831 -0.67955,0.254831 -0.50966,0 -0.76449,-0.339774 l -3.3765,-4.034808 -3.2066,4.034808 q -0.31854,0.339774 -0.7645,0.339774 -0.42471,0 -0.67954,-0.254831 -0.2336,-0.25483 -0.2336,-0.637075 0,-0.42472 0.2973,-0.785729 l 3.29155,-4.119753 -3.50391,-4.140985 q -0.31853,-0.382248 -0.31853,-0.806965 0,-0.361009 0.23359,-0.615842 0.25483,-0.254819 0.70078,-0.254819 0.50967,0 0.80697,0.361 l 3.48267,4.162224 3.12167,-4.162224 q 0.27606,-0.361 0.78573,-0.361 0.42471,0 0.65831,0.276055 0.25483,0.254832 0.25483,0.637078 0,0.46719 -0.2973,0.849436 l -3.20661,4.183458 z" />
    <path
       inkscape:connector-curvature="0"
       id="path1419"
       style="font-style:normal;font-variant:normal;font-weight:bold;font-stretch:normal;font-size:18.49994659px;line-height:1;font-family:Comfortaa;-inkscape-font-specification:'Comfortaa Bold';letter-spacing:0px;word-spacing:0px;fill:#39595d;fill-opacity:1;stroke:none;stroke-width:0.53089571"
       d="m -155.4858,38.502875 q 1.63516,0 2.97302,0.785716 1.35909,0.764491 2.12357,2.123588 0.7645,1.337849 0.7645,2.994249 0,1.6564 -0.72202,3.015484 -0.70079,1.337863 -1.95369,2.102356 -1.23169,0.76449 -2.76066,0.76449 -1.23168,0 -2.29347,-0.509661 -1.0618,-0.509661 -1.80504,-1.422803 v 5.733678 q 0,0.488425 -0.29731,0.785716 -0.2973,0.297304 -0.78572,0.297304 -0.46719,0 -0.78573,-0.297304 -0.2973,-0.297291 -0.2973,-0.785716 v -9.683544 q 0,-1.6564 0.76449,-2.994249 0.78573,-1.359097 2.10234,-2.123588 1.33786,-0.785716 2.97302,-0.785716 z m 0,9.874654 q 1.06179,0 1.91122,-0.509662 0.87067,-0.530896 1.3591,-1.422793 0.50966,-0.913142 0.50966,-2.038646 0,-1.125499 -0.50966,-2.038632 -0.48843,-0.913143 -1.3591,-1.422804 -0.84943,-0.5309 -1.91122,-0.5309 -1.06179,0 -1.93246,0.5309 -0.84944,0.509661 -1.33786,1.422804 -0.48842,0.913133 -0.48842,2.038632 0,1.125504 0.48842,2.038646 0.48842,0.891897 1.33786,1.422793 0.87067,0.509662 1.93246,0.509662 z" />
    <path
       inkscape:connector-curvature="0"
       id="path1421"
       style="font-style:normal;font-variant:normal;font-weight:bold;font-stretch:normal;font-size:18.49994659px;line-height:1;font-family:Comfortaa;-inkscape-font-specification:'Comfortaa Bold';letter-spacing:0px;word-spacing:0px;fill:#39595d;fill-opacity:1;stroke:none;stroke-width:0.53089571"
       d="m -135.96742,44.215305 q 0,0.403485 -0.27606,0.679549 -0.27607,0.254832 -0.70079,0.254832 h -8.06961 q 0.23359,1.486513 1.33786,2.399643 1.1255,0.913146 2.73942,0.913146 0.63707,0 1.31662,-0.233598 0.70078,-0.233593 1.14674,-0.573367 0.29729,-0.233598 0.70077,-0.233598 0.40348,0 0.63708,0.212362 0.38224,0.318539 0.38224,0.72202 0,0.382245 -0.33977,0.637077 -0.72202,0.573368 -1.80504,0.934378 -1.06179,0.361009 -2.03864,0.361009 -1.74134,0 -3.12167,-0.743254 -1.38033,-0.764495 -2.16606,-2.102352 -0.76448,-1.337852 -0.76448,-3.036724 0,-1.698858 0.72201,-3.03672 0.74325,-1.359096 2.03864,-2.102351 1.31663,-0.764482 2.97302,-0.764482 1.63516,0 2.82437,0.722008 1.1892,0.722022 1.82628,2.017409 0.63707,1.295391 0.63707,2.973013 z m -5.28772,-3.886155 q -1.55021,0 -2.52706,0.849436 -0.95562,0.849435 -1.21045,2.27223 h 7.07153 q -0.19112,-1.422795 -1.06178,-2.27223 -0.87067,-0.849436 -2.27224,-0.849436 z" />
    <path
       inkscape:connector-curvature="0"
       id="path1423"
       style="font-style:normal;font-variant:normal;font-weight:bold;font-stretch:normal;font-size:18.49994659px;line-height:1;font-family:Comfortaa;-inkscape-font-specification:'Comfortaa Bold';letter-spacing:0px;word-spacing:0px;fill:#39595d;fill-opacity:1;stroke:none;stroke-width:0.53089571"
       d="m -127.36632,38.460404 q 1.1255,0 1.76258,0.339762 0.63708,0.339774 0.63708,0.849436 0,0.148651 -0.0212,0.212357 -0.19112,0.679549 -0.84944,0.679549 -0.10617,0 -0.31853,-0.04247 -0.84944,-0.148651 -1.38033,-0.148651 -1.52898,0 -2.46336,0.700783 -0.93438,0.700784 -0.93438,1.889985 v 6.200869 q 0,0.509661 -0.27606,0.785726 -0.25482,0.276067 -0.78572,0.276067 -0.50966,0 -0.78573,-0.254832 -0.27607,-0.276065 -0.27607,-0.806961 v -9.492422 q 0,-0.509661 0.27607,-0.785729 0.27607,-0.276055 0.78573,-0.276055 1.06178,0 1.06178,1.061784 v 0.403481 q 0.63708,-0.743255 1.57146,-1.167974 0.93438,-0.424704 1.99616,-0.424704 z" />
    <path
       inkscape:connector-curvature="0"
       id="path1425"
       style="font-style:normal;font-variant:normal;font-weight:bold;font-stretch:normal;font-size:18.49994659px;line-height:1;font-family:Comfortaa;-inkscape-font-specification:'Comfortaa Bold';letter-spacing:0px;word-spacing:0px;fill:#39595d;fill-opacity:1;stroke:none;stroke-width:0.53089571"
       d="m -120.82712,50.203816 q -0.46719,0 -0.78573,-0.297303 -0.2973,-0.318539 -0.2973,-0.785726 v -9.44995 q 0,-0.488426 0.2973,-0.785729 0.31854,-0.297291 0.78573,-0.297291 0.48842,0 0.78573,0.297291 0.2973,0.297303 0.2973,0.785729 v 9.44995 q 0,0.467187 -0.2973,0.785726 -0.29731,0.297303 -0.78573,0.297303 z m 0,-13.505993 q -0.57337,0 -0.99809,-0.403481 -0.40348,-0.424719 -0.40348,-0.998087 0,-0.573358 0.40348,-0.976839 0.42472,-0.424719 0.99809,-0.424719 0.57337,0 0.97685,0.424719 0.42472,0.403481 0.42472,0.976839 0,0.573368 -0.42472,0.998087 -0.40348,0.403481 -0.97685,0.403481 z" />
    <path
       inkscape:connector-curvature="0"
       id="path1427"
       style="font-style:normal;font-variant:normal;font-weight:bold;font-stretch:normal;font-size:18.49994659px;line-height:1;font-family:Comfortaa;-inkscape-font-specification:'Comfortaa Bold';letter-spacing:0px;word-spacing:0px;fill:#39595d;fill-opacity:1;stroke:none;stroke-width:0.53089571"
       d="m -105.26691,44.215305 q 0,0.403485 -0.27606,0.679549 -0.27607,0.254832 -0.70078,0.254832 h -8.06961 q 0.23359,1.486513 1.33785,2.399643 1.1255,0.913146 2.73943,0.913146 0.63706,0 1.31661,-0.233598 0.70078,-0.233593 1.14674,-0.573367 0.2973,-0.233598 0.70078,-0.233598 0.40348,0 0.63708,0.212362 0.38225,0.318539 0.38225,0.72202 0,0.382245 -0.33978,0.637077 -0.72202,0.573368 -1.80505,0.934378 -1.06179,0.361009 -2.03863,0.361009 -1.74135,0 -3.12168,-0.743254 -1.38032,-0.764495 -2.16605,-2.102352 -0.76449,-1.337852 -0.76449,-3.036724 0,-1.698858 0.72202,-3.03672 0.74326,-1.359096 2.03863,-2.102351 1.31663,-0.764482 2.97303,-0.764482 1.63515,0 2.82436,0.722008 1.18921,0.722022 1.82628,2.017409 0.63707,1.295391 0.63707,2.973013 z m -5.28771,-3.886155 q -1.55022,0 -2.52707,0.849436 -0.95561,0.849435 -1.21044,2.27223 h 7.07153 q -0.19112,-1.422795 -1.06179,-2.27223 -0.87067,-0.849436 -2.27223,-0.849436 z" />
    <path
       inkscape:connector-curvature="0"
       id="path1429"
       style="font-style:normal;font-variant:normal;font-weight:bold;font-stretch:normal;font-size:18.49994659px;line-height:1;font-family:Comfortaa;-inkscape-font-specification:'Comfortaa Bold';letter-spacing:0px;word-spacing:0px;fill:#39595d;fill-opacity:1;stroke:none;stroke-width:0.53089571"
       d="m -96.728105,38.481639 q 1.465276,0 2.633239,0.637065 1.167974,0.637075 1.826286,1.868759 0.658313,1.210445 0.658313,2.93054 v 5.22402 q 0,0.467187 -0.318539,0.785726 -0.297302,0.297302 -0.764492,0.297302 -0.467189,0 -0.785728,-0.297302 -0.297302,-0.318539 -0.297302,-0.785726 v -5.22402 q 0,-1.720095 -0.934379,-2.590766 -0.913132,-0.891906 -2.442116,-0.891906 -0.891908,0 -1.635164,0.361009 -0.722009,0.36101 -1.146727,0.976848 -0.403486,0.615842 -0.403486,1.380324 v 5.988511 q 0,0.467187 -0.2973,0.785726 -0.2973,0.297302 -0.78573,0.297302 -0.46719,0 -0.78572,-0.297302 -0.29731,-0.318539 -0.29731,-0.785726 v -9.471186 q 0,-0.488426 0.29731,-0.785729 0.31853,-0.297291 0.78572,-0.297291 0.48843,0 0.78573,0.297291 0.2973,0.297303 0.2973,0.785729 v 0.233594 q 0.679553,-0.679548 1.613921,-1.040559 0.934379,-0.382233 1.996174,-0.382233 z" />
    <path
       inkscape:connector-curvature="0"
       id="path1431"
       style="font-style:normal;font-variant:normal;font-weight:bold;font-stretch:normal;font-size:18.49994659px;line-height:1;font-family:Comfortaa;-inkscape-font-specification:'Comfortaa Bold';letter-spacing:0px;word-spacing:0px;fill:#39595d;fill-opacity:1;stroke:none;stroke-width:0.53089571"
       d="m -82.915958,50.288758 q -1.677624,0 -3.015485,-0.76449 -1.337864,-0.764493 -2.102344,-2.102356 -0.743256,-1.359084 -0.743256,-3.015484 0,-1.698858 0.72202,-3.03672 0.743245,-1.359096 2.059872,-2.102351 1.316625,-0.764482 2.973013,-0.764482 2.505835,0 4.162224,1.911217 0.212358,0.233596 0.212358,0.552135 0,0.467187 -0.467189,0.785727 -0.212359,0.148651 -0.488414,0.148651 -0.488426,0 -0.8282,-0.382245 -0.530897,-0.573368 -1.167974,-0.8282 -0.615841,-0.276068 -1.422805,-0.276068 -1.635152,0 -2.654475,1.104268 -1.019322,1.083029 -1.019322,2.888068 0,1.146739 0.467189,2.059884 0.488426,0.891894 1.337861,1.401555 0.870672,0.509662 1.974927,0.509662 1.44404,0 2.335948,-0.743255 0.403482,-0.297303 0.785728,-0.297303 0.297291,0 0.552121,0.191122 0.403482,0.339774 0.403482,0.764494 0,0.318535 -0.25483,0.573368 -1.528973,1.422803 -3.822449,1.422803 z" />
    <path
       inkscape:connector-curvature="0"
       id="path1433"
       style="font-style:normal;font-variant:normal;font-weight:bold;font-stretch:normal;font-size:18.49994659px;line-height:1;font-family:Comfortaa;-inkscape-font-specification:'Comfortaa Bold';letter-spacing:0px;word-spacing:0px;fill:#39595d;fill-opacity:1;stroke:none;stroke-width:0.53089571"
       d="m -66.042424,44.215305 q 0,0.403485 -0.276067,0.679549 -0.276066,0.254832 -0.700784,0.254832 h -8.069616 q 0.233595,1.486513 1.337861,2.399643 1.125491,0.913146 2.739419,0.913146 0.637076,0 1.316625,-0.233598 0.700773,-0.233593 1.146727,-0.573367 0.297302,-0.233598 0.700784,-0.233598 0.403482,0 0.637077,0.212362 0.382246,0.318539 0.382246,0.72202 0,0.382245 -0.339774,0.637077 -0.722021,0.573368 -1.805051,0.934378 -1.061783,0.361009 -2.038634,0.361009 -1.741343,0 -3.121665,-0.743254 -1.380333,-0.764495 -2.166061,-2.102352 -0.764492,-1.337852 -0.764492,-3.036724 0,-1.698858 0.722021,-3.03672 0.743256,-1.359096 2.038645,-2.102351 1.316614,-0.764482 2.973013,-0.764482 1.635164,0 2.824362,0.722008 1.18921,0.722022 1.826287,2.017409 0.637077,1.295391 0.637077,2.973013 z M -71.33015,40.32915 q -1.55022,0 -2.527059,0.849436 -0.955615,0.849435 -1.210446,2.27223 h 7.071529 q -0.191123,-1.422795 -1.061795,-2.27223 -0.87066,-0.849436 -2.272229,-0.849436 z" />
    <path
       inkscape:connector-curvature="0"
       id="path1435"
       style="font-style:normal;font-variant:normal;font-weight:bold;font-stretch:normal;font-size:18.49994659px;line-height:1;font-family:Comfortaa;-inkscape-font-specification:'Comfortaa Bold';letter-spacing:0px;word-spacing:0px;fill:#39595d;fill-opacity:1;stroke:none;stroke-width:0.53089571"
       d="m -59.053842,50.288758 q -1.44404,0 -2.718194,-0.445952 -1.274142,-0.445955 -1.996162,-1.167974 -0.276067,-0.276067 -0.276067,-0.658312 0,-0.509662 0.424718,-0.8282 0.403482,-0.297304 0.743256,-0.297304 0.424707,0 0.806953,0.382249 0.403482,0.445951 1.210446,0.785725 0.806963,0.318539 1.720107,0.318539 1.210434,0 1.868747,-0.403481 0.679548,-0.403483 0.679548,-1.083032 0,-0.658301 -0.658312,-1.083016 -0.658313,-0.445955 -2.229757,-0.743259 -4.07728,-0.785726 -4.07728,-3.355259 0,-1.040558 0.615841,-1.762577 0.615829,-0.722022 1.613916,-1.083033 0.998087,-0.360997 2.123589,-0.360997 1.380322,0 2.463352,0.445942 1.104266,0.445953 1.741343,1.231682 0.276067,0.339774 0.276067,0.679547 0,0.36101 -0.361022,0.658314 -0.233583,0.169887 -0.594593,0.169887 -0.552134,0 -0.998087,-0.403481 -0.530898,-0.488426 -1.125503,-0.679548 -0.594605,-0.212361 -1.444029,-0.212361 -0.976851,0 -1.613927,0.339774 -0.615841,0.318538 -0.615841,0.913144 0,0.424717 0.212359,0.722021 0.212359,0.276067 0.806964,0.530884 0.594604,0.233596 1.720095,0.46719 2.314712,0.467191 3.270327,1.29539 0.97684,0.8282 0.97684,2.144814 0,0.976852 -0.530886,1.783814 -0.530897,0.785729 -1.571456,1.252918 -1.019323,0.445952 -2.463352,0.445952 z" />
    <rect
       rx="1"
       y="6.2906632"
       x="-198.9158"
       height="52.384819"
       width="2.4239709"
       id="rect1390"
       style="opacity:1;fill:#ff9955;fill-opacity:1;fill-rule:nonzero;stroke:none;stroke-width:0.22154185;stroke-linecap:round;stroke-linejoin:round;stroke-miterlimit:4;stroke-dasharray:none;stroke-opacity:1;paint-order:stroke fill markers"
       ry="1" />
    <path
       d="m -220.43482,114.66827 q 3.50266,0 6.32425,1.75133 2.87024,1.75133 4.47562,4.86481 1.65404,3.06482 1.65404,6.85938 0,3.79455 -1.75133,6.90802 -1.75133,3.06483 -4.86481,4.86481 -3.06483,1.75133 -6.81073,1.75133 -3.74591,0 -6.81073,-1.75133 -3.01619,-1.79998 -4.81617,-4.86481 -1.75133,-3.11347 -1.75133,-6.90802 v -22.18353 q 0,-1.11891 0.68108,-1.79998 0.72972,-0.68107 1.79998,-0.68107 1.1189,0 1.79998,0.68107 0.68107,0.68107 0.68107,1.79998 v 13.13498 q 1.70268,-2.09187 4.13509,-3.25942 2.4324,-1.16755 5.25399,-1.16755 z m -0.97296,22.62136 q 2.4324,0 4.37832,-1.16756 1.99458,-1.2162 3.11348,-3.30807 1.16756,-2.09187 1.16756,-4.67021 0,-2.57835 -1.16756,-4.62157 -1.1189,-2.09187 -3.11348,-3.25942 -1.94592,-1.21621 -4.37832,-1.21621 -2.43241,0 -4.42698,1.21621 -1.94592,1.16755 -3.06483,3.25942 -1.1189,2.04322 -1.1189,4.62157 0,2.57834 1.1189,4.67021 1.11891,2.09187 3.06483,3.30807 1.99457,1.16756 4.42698,1.16756 z"
       style="font-style:normal;font-variant:normal;font-weight:bold;font-stretch:normal;font-size:48.64808655px;line-height:1.25;font-family:Comfortaa;-inkscape-font-specification:'Comfortaa Bold';letter-spacing:0px;word-spacing:0px;fill:#96b5b8;fill-opacity:1;stroke:none;stroke-width:1.21620214"
       id="path909"
       inkscape:connector-curvature="0" />
  </g>
</svg>
